<svg width="13011" height="2818" viewBox="0 0 13011 2818" fill="none" xmlns="http://www.w3.org/2000/svg">
<path d="M1971.91 2817.11C1505.91 2817.11 1126.71 2438.09 1126.71 1971.96V845.149C1126.71 689.827 1000.36 563.489 845.029 563.489C689.698 563.489 563.353 689.827 563.353 845.149V2816.94H0V845.149C0 379.183 379.036 0 845.2 0C1311.36 0 1690.4 379.013 1690.4 845.149V1971.96C1690.4 2127.28 1816.74 2253.62 1972.08 2253.62C2127.41 2253.62 2253.75 2127.28 2253.75 1971.96V0.170532H2817.11V1971.96C2817.11 2437.92 2438.07 2817.11 1971.91 2817.11Z" fill="white"/>
<path d="M6214.63 2817.11H4242.89C3776.93 2817.11 3397.75 2438.09 3397.75 1971.96V845.149C3397.75 379.183 3776.76 0 4242.89 0H5369.67C5835.63 0 6214.8 379.013 6214.8 845.149C6214.8 1311.28 5835.8 1690.3 5369.67 1690.3H4242.89C4087.57 1690.3 3961.23 1816.64 3961.23 1971.96C3961.23 2127.28 4087.57 2253.62 4242.89 2253.62H6214.63V2816.94V2817.11ZM4242.89 563.66C4087.57 563.66 3961.23 689.997 3961.23 845.319V1175.23C4049.38 1144.03 4144.17 1126.98 4242.89 1126.98H5369.67C5524.99 1126.98 5651.32 1000.64 5651.32 845.319C5651.32 689.997 5524.99 563.66 5369.67 563.66H4242.89Z" fill="white"/>
<path d="M8767.52 0C8551.3 0 8353.66 81.843 8204.11 215.861C8054.39 81.6725 7856.93 0 7640.7 0C7174.66 0 6795.42 379.036 6795.42 845.2V2817.11H7358.83V845.2C7358.83 689.869 7485.19 563.523 7640.53 563.523C7795.88 563.523 7922.24 689.869 7922.24 845.2V2817.11H8485.65V845.2C8485.65 689.869 8612 563.523 8767.35 563.523C8922.7 563.523 9049.06 689.869 9049.06 845.2V2817.11H9612.47V845.2C9612.47 379.206 9233.39 0 8767.18 0H8767.52Z" fill="white"/>
<path d="M12165 2817.11H11038.2C10572.3 2817.11 10193.1 2438.09 10193.1 1971.96V845.149C10193.1 379.183 10572.1 0 11038.2 0H12165C12631 0 13010.1 379.013 13010.1 845.149V1971.96C13010.1 2437.92 12631.1 2817.11 12165 2817.11ZM11038.4 563.66C10883.1 563.66 10756.7 689.997 10756.7 845.319V1972.13C10756.7 2127.45 10883.1 2253.79 11038.4 2253.79H12165.2C12320.5 2253.79 12446.8 2127.45 12446.8 1972.13V845.319C12446.8 689.997 12320.5 563.66 12165.2 563.66H11038.4Z" fill="white"/>
</svg>
