<svg width="5040" height="5040" viewBox="0 0 5040 5040" fill="none" xmlns="http://www.w3.org/2000/svg">
<path d="M1597.33 2281.98C1219.85 2281.98 912.681 1974.96 912.681 1597.37V684.607C912.681 558.79 810.336 456.451 684.511 456.451C558.686 456.451 456.341 558.79 456.341 684.607V2281.84H0V684.607C0 307.155 307.035 0 684.649 0C1062.26 0 1369.3 307.017 1369.3 684.607V1597.37C1369.3 1723.19 1471.64 1825.53 1597.47 1825.53C1723.29 1825.53 1825.64 1723.19 1825.64 1597.37V0.138139H2281.98V1597.37C2281.98 1974.82 1974.94 2281.98 1597.33 2281.98Z" fill="white"/>
<path d="M5039.23 2281.98H3442.03C3064.58 2281.98 2757.43 1974.96 2757.43 1597.37V684.607C2757.43 307.155 3064.44 0 3442.03 0H4354.77C4732.22 0 5039.37 307.017 5039.37 684.607C5039.37 1062.2 4732.36 1369.21 4354.77 1369.21H3442.03C3316.21 1369.21 3213.88 1471.55 3213.88 1597.37C3213.88 1723.19 3316.21 1825.53 3442.03 1825.53H5039.23V2281.84V2281.98ZM3442.03 456.589C3316.21 456.589 3213.88 558.928 3213.88 684.746V951.987C3285.28 926.713 3362.06 912.902 3442.03 912.902H4354.77C4480.59 912.902 4582.92 810.563 4582.92 684.746C4582.92 558.928 4480.59 456.589 4354.77 456.589H3442.03Z" fill="white"/>
<path d="M1597.49 2757.39C1422.34 2757.39 1262.25 2823.69 1141.1 2932.25C1019.83 2823.55 859.869 2757.39 684.718 2757.39C307.205 2757.39 0 3064.42 0 3442.04V5039.37H456.387V3442.04C456.387 3316.21 558.742 3213.87 684.58 3213.87C810.418 3213.87 912.773 3316.21 912.773 3442.04V5039.37H1369.16V3442.04C1369.16 3316.21 1471.52 3213.87 1597.35 3213.87C1723.19 3213.87 1825.55 3316.21 1825.55 3442.04V5039.37H2281.93V3442.04C2281.93 3064.56 1974.87 2757.39 1597.22 2757.39H1597.49Z" fill="white"/>
<path d="M4354.67 5039.37H3441.93C3064.48 5039.37 2757.34 4732.35 2757.34 4354.76V3442C2757.34 3064.54 3064.35 2757.39 3441.93 2757.39H4354.67C4732.12 2757.39 5039.27 3064.41 5039.27 3442V4354.76C5039.27 4732.21 4732.26 5039.37 4354.67 5039.37ZM3442.07 3213.98C3316.25 3213.98 3213.92 3316.32 3213.92 3442.13V4354.9C3213.92 4480.72 3316.25 4583.05 3442.07 4583.05H4354.81C4480.63 4583.05 4582.97 4480.72 4582.97 4354.9V3442.13C4582.97 3316.32 4480.63 3213.98 4354.81 3213.98H3442.07Z" fill="white"/>
</svg>
